<?xml version="1.0" standalone="no"?><!DOCTYPE svg PUBLIC "-//W3C//DTD SVG 1.1//EN" "http://www.w3.org/Graphics/SVG/1.1/DTD/svg11.dtd"><svg t="1580981089735" class="icon" viewBox="0 0 1024 1024" version="1.1" xmlns="http://www.w3.org/2000/svg" p-id="2404" xmlns:xlink="http://www.w3.org/1999/xlink" width="200" height="200"><defs><style type="text/css"></style></defs><path d="M903.71 350.208c-10.823-65.651-47.47-117.512-108.93-154.145-35.295-21.054-75.018-32.187-114.86-32.187-50.882 0-99.14 18.619-135.887 52.429-11.387 10.475-21.796 21.929-31.83 33.075-31.21-38.05-63.1-61.566-100.056-73.884-64.875-21.61-129.477-13.271-188.864 24.404-70.592 44.777-106.096 108.17-105.54 188.434 0.314 47.263 16.053 92.117 48.104 137.098 34.412 48.333 76.751 97.541 133.233 154.868 38.018 38.589 77.401 76.948 115.481 114.07l37.169 36.26c3.313 3.249 6.687 6.444 10.076 9.629l4.201 3.901c7.898 6.584 24.392 17.641 45.993 17.641 17.884 0 34.842-7.332 50.56-21.906 64.632-60.87 133.501-126.994 199.05-198.044 33.94-36.8 72.802-80.07 104.448-128.092 34.276-52.043 46.956-107.075 37.653-163.551m-70.713 141.778C803 537.52 766.9 577.723 732.518 615.014c-64.732 70.147-132.974 135.693-196.974 195.974-8.053 7.447-15.964 11.235-23.541 11.235-9.142 0-16.86-5.307-19.728-7.628l-3.3-3.119c-3.223-3.04-6.448-6.082-9.592-9.146l-37.194-36.301c-37.947-36.964-77.174-75.198-114.908-113.503-55.737-56.553-95.573-102.825-129.201-150.05-27.167-38.138-40.479-75.558-40.755-114.418-0.45-66.617 28.052-117.23 87.163-154.74 31.424-19.932 64.174-30.046 97.308-30.046 18.923 0 38.38 3.3 57.843 9.779 30.653 10.217 57.61 30.886 85.158 65.405 1.864 2.202 11.89 13.22 27.472 13.22 6.845 0 17-2.191 26.55-12.692l1.559-1.728c10.283-11.405 19.96-22.162 30.458-31.826 29.84-27.459 67.572-41.969 109.085-41.969 32.701 0 65.408 9.2 94.576 26.58 51.694 30.836 81.188 72.249 90.146 126.61 7.73 46.992-2.604 91.254-31.645 135.335" p-id="2405" fill="#cccccc"></path><path d="M383.521 288.707c-14.65-6.777-30.349-10.192-46.63-10.192-61.502 0-111.547 50.046-111.547 111.534 0 22.06 6.43 43.372 18.578 61.668 3.814 5.722 10.097 8.827 16.494 8.827 3.763 0 7.575-1.07 10.939-3.313 9.103-6.041 11.584-18.334 5.53-27.433-7.829-11.778-11.958-25.525-11.958-39.749 0-39.685 32.276-71.951 71.964-71.951 10.514 0 20.608 2.189 30.029 6.533 9.897 4.613 21.69 0.284 26.26-9.661 4.593-9.923 0.264-21.689-9.659-26.263" p-id="2406" fill="#cccccc"></path></svg>