<?xml version="1.0" standalone="no"?><!DOCTYPE svg PUBLIC "-//W3C//DTD SVG 1.1//EN" "http://www.w3.org/Graphics/SVG/1.1/DTD/svg11.dtd"><svg t="1581394059247" class="icon" viewBox="0 0 1024 1024" version="1.1" xmlns="http://www.w3.org/2000/svg" p-id="1359" xmlns:xlink="http://www.w3.org/1999/xlink" width="200" height="200"><defs><style type="text/css"></style></defs><path d="M901.51076 151.373593 611.722724 441.161628c-11.378142 11.387351-29.819143 11.405771-41.348734-0.12382-11.453866-11.453866-11.491729-29.971615-0.11461-41.348734l280.128025-280.129049L715.763288 119.560026c-16.07307 0-29.283953-13.123902-29.283953-29.321816 0-16.303314 13.114692-29.321816 29.283953-29.321816l215.107149 0c8.037047 0 15.34857 3.273557 20.656459 8.581446 5.383614 5.306866 8.629541 12.627598 8.629541 20.702508L960.156438 305.306474c0 16.083304-13.134135 29.283953-29.322839 29.283953-16.303314 0-29.321816-13.114692-29.321816-29.283953L901.511783 151.373593z" p-id="1360" fill="#cccccc"></path><path d="M119.578957 850.366428 399.706983 570.238402c11.397584-11.377118 29.819143-11.414981 41.349757 0.11461 11.452843 11.452843 11.491729 29.970592 0.13303 41.348734L151.402757 901.489782l153.923672 0c16.093537 0 29.283953 13.133112 29.283953 29.321816 0 16.303314-13.114692 29.321816-29.283953 29.321816L90.219279 960.133414c-8.037047 0-15.34857-3.28379-20.674878-8.590656-5.364171-5.306866-8.609075-12.619412-8.609075-20.694321L60.935326 715.744357c0-16.075117 13.113669-29.283953 29.321816-29.283953 16.303314 0 29.321816 13.112646 29.321816 29.283953L119.578957 850.366428z" p-id="1361" fill="#cccccc"></path></svg>