<?xml version="1.0" standalone="no"?><!DOCTYPE svg PUBLIC "-//W3C//DTD SVG 1.1//EN" "http://www.w3.org/Graphics/SVG/1.1/DTD/svg11.dtd"><svg t="1580981162319" class="icon" viewBox="0 0 1024 1024" version="1.1" xmlns="http://www.w3.org/2000/svg" p-id="4497" xmlns:xlink="http://www.w3.org/1999/xlink" width="200" height="200"><defs><style type="text/css"></style></defs><path d="M806.4 371.2c86.4 0 153.6-70.4 153.6-153.6C960 134.4 889.6 64 806.4 64c-86.4 0-153.6 70.4-153.6 153.6 0 6.4 0 16 3.2 22.4L329.6 364.8c-28.8-28.8-67.2-48-112-48C134.4 316.8 64 384 64 470.4S134.4 624 217.6 624c32 0 64-9.6 89.6-28.8L528 742.4c-9.6 19.2-12.8 41.6-12.8 64 0 86.4 70.4 153.6 153.6 153.6 86.4 0 153.6-70.4 153.6-153.6S752 652.8 668.8 652.8c-41.6 0-80 16-108.8 44.8L348.8 556.8c16-25.6 25.6-54.4 25.6-83.2 0-19.2-3.2-38.4-9.6-57.6L672 294.4c25.6 44.8 76.8 76.8 134.4 76.8zM217.6 566.4c-54.4 0-99.2-44.8-99.2-99.2 0-54.4 44.8-99.2 99.2-99.2 54.4 0 99.2 44.8 99.2 99.2 0 57.6-44.8 99.2-99.2 99.2z m448 140.8c54.4 0 99.2 44.8 99.2 99.2 0 54.4-44.8 99.2-99.2 99.2-54.4 0-99.2-44.8-99.2-99.2 0-54.4 44.8-99.2 99.2-99.2z m140.8-588.8c54.4 0 99.2 44.8 99.2 99.2 0 54.4-44.8 99.2-99.2 99.2-54.4 0-99.2-44.8-99.2-99.2 0-54.4 44.8-99.2 99.2-99.2z m0 0" p-id="4498" fill="#cccccc"></path></svg>