<?xml version="1.0" encoding="UTF-8"?>
<svg width="700pt" height="700pt" version="1.1" viewBox="0 0 700 700" xmlns="http://www.w3.org/2000/svg" xmlns:xlink="http://www.w3.org/1999/xlink">
 <g>
  <path d="m517.11 121.63c-5.1953-38.945-26.496-73.926-58.711-96.418-32.219-22.496-72.395-30.438-110.75-21.898-38.352 8.5391-71.359 32.777-90.988 66.812-12.668-4.4414-26.203-5.832-39.508-4.0586-18.707 2.5703-36 11.371-49.082 24.98-13.082 13.613-21.195 31.238-23.02 50.031-0.67578 7.0742-0.48047 14.199 0.57812 21.227-26.898 7.3203-49.656 25.273-63.047 49.727-13.387 24.449-16.25 53.297-7.9297 79.902 8.3203 26.609 27.105 48.684 52.039 61.152 0.066406 0.69141 0.085937 1.457 0.16016 2.1484v-0.003906c0.41016 3.9883 1.9023 7.7891 4.3164 10.988 2.4141 3.2031 5.6602 5.6797 9.3828 7.168l20.449 8.168v-0.003906c4.7383 19.707 12.551 38.547 23.148 55.824l-8.6328 20.262c-1.6406 3.668-2.2148 7.7227-1.6641 11.703s2.207 7.7266 4.7812 10.809c8.2188 9.8047 17.273 18.879 27.066 27.113 3.0859 2.6055 6.8438 4.2891 10.84 4.8594 3.9961 0.56641 8.0742 0 11.766-1.6367l20.281-8.6445c17.277 10.598 36.113 18.41 55.82 23.148l8.2539 20.477c1.4805 3.7031 3.9414 6.9297 7.1211 9.3398 3.1797 2.4062 6.9531 3.9023 10.918 4.3242 12.832 1.2188 25.746 1.2188 38.574 0 3.9883-0.41016 7.7891-1.9023 10.988-4.3203 3.2031-2.4141 5.6797-5.6602 7.168-9.3828l8.168-20.449h-0.003907c19.707-4.7344 38.547-12.547 55.824-23.145l20.262 8.6328c3.668 1.6367 7.7227 2.2148 11.703 1.6641 3.9805-0.55078 7.7266-2.207 10.809-4.7812 9.8008-8.2266 18.875-17.281 27.113-27.066 2.6094-3.0859 4.2969-6.8398 4.8672-10.84 0.56641-4-0.003907-8.0781-1.6445-11.766l-8.6445-20.281c10.598-17.277 18.41-36.117 23.148-55.824l20.477-8.1758c3.7031-1.4805 6.9297-3.9414 9.3398-7.1211 2.4062-3.1797 3.9023-6.9531 4.3242-10.922 0.33594-3.3125 0.54297-6.793 0.67969-10.453 28.922-18.375 48.719-48.133 54.484-81.91 5.7695-33.781-3.0273-68.422-24.215-95.352-21.188-26.934-52.781-43.641-86.969-45.988zm37.438 231.94c-0.19141 1.1289-0.96484 2.0703-2.0352 2.4727l-25.004 9.9961c-2.8945 1.1523-5.0234 3.6758-5.6758 6.7227-4.4375 20.895-12.688 40.797-24.332 58.703-1.6875 2.6055-1.9727 5.8828-0.75781 8.7383l10.574 24.797h0.003907c0.50781 1.0625 0.375 2.3203-0.34766 3.25-7.5625 8.9609-15.871 17.27-24.836 24.824-0.92969 0.64844-2.1367 0.73828-3.1523 0.23438l-24.781-10.566c-2.8555-1.2148-6.1328-0.92969-8.7383 0.75781-17.906 11.645-37.809 19.895-58.703 24.332-3.0469 0.65234-5.5703 2.7812-6.7227 5.6758l-9.9844 25.023c-0.41797 1.1133-1.4141 1.9102-2.5977 2.0703-11.652 1.1016-23.383 1.1016-35.035 0-1.1289-0.1875-2.0703-0.96484-2.4727-2.0352l-9.9961-25.004c-1.1523-2.8945-3.6758-5.0234-6.7227-5.6758-20.895-4.4375-40.797-12.684-58.703-24.332-2.6055-1.6875-5.8828-1.9727-8.7383-0.75391l-24.797 10.574c-1.0625 0.51562-2.3203 0.38281-3.25-0.34375-8.9844-7.543-17.289-15.852-24.824-24.836-0.65234-0.92969-0.74219-2.1406-0.23438-3.1562l10.566-24.781c1.2148-2.8555 0.92969-6.1289-0.75781-8.7344-11.645-17.91-19.895-37.812-24.332-58.707-0.65234-3.0469-2.7812-5.5664-5.6758-6.7188l-24.977-9.9883c-1.1133-0.41797-1.9102-1.4141-2.0703-2.5938-1.1016-11.652-1.1016-23.387 0-35.039 0.1875-1.1289 0.96484-2.0703 2.0352-2.4727l25.004-9.9961c2.8945-1.1523 5.0234-3.6719 5.6758-6.7188 4.4375-20.898 12.684-40.797 24.332-58.707 1.6875-2.6055 1.9727-5.8789 0.75391-8.7383l-10.574-24.797c-0.51172-1.0586-0.37891-2.3203 0.34375-3.25 7.5664-8.9609 15.875-17.266 24.836-24.824 0.93359-0.64453 2.1406-0.73437 3.1562-0.23437l24.781 10.566c2.8516 1.2305 6.1328 0.94531 8.7344-0.75781 17.91-11.645 37.812-19.891 58.707-24.332 3.0469-0.64844 5.5664-2.7773 6.7188-5.6719l9.9883-24.977c0.41797-1.1172 1.4141-1.9102 2.5938-2.0742 11.652-1.1016 23.387-1.1016 35.039 0 1.125 0.19141 2.0703 0.96484 2.4727 2.0352l9.9961 25.004c1.1523 2.8945 3.6719 5.0234 6.7188 5.6758 20.898 4.4375 40.797 12.688 58.707 24.332 2.6055 1.6875 5.8789 1.9727 8.7383 0.75391l24.797-10.574c1.0625-0.50391 2.3164-0.37109 3.2461 0.34766 8.9844 7.5391 17.293 15.848 24.828 24.836 0.65234 0.92969 0.74219 2.1406 0.23438 3.1523l-10.566 24.781c-1.2148 2.8555-0.93359 6.1328 0.75781 8.7344 11.645 17.91 19.891 37.812 24.332 58.707 0.64844 3.0469 2.7773 5.5703 5.6719 6.7227l24.977 9.9883v-0.003907c1.1172 0.41797 1.9102 1.4141 2.0742 2.5977 1.0977 11.637 1.0977 23.352 0 34.988zm18.965-31.574c-0.12109-1.7656-0.20703-3.5859-0.38281-5.2812-0.41797-3.9805-1.9141-7.7695-4.3281-10.961-2.4102-3.1914-5.6484-5.6602-9.3633-7.1484l-20.449-8.168v0.003906c-4.7383-19.707-12.551-38.547-23.148-55.824l8.6328-20.262c1.6406-3.668 2.2148-7.7227 1.6641-11.703s-2.207-7.7266-4.7812-10.809c-8.2227-9.8047-17.277-18.875-27.066-27.113-3.082-2.6094-6.8398-4.2969-10.84-4.8672-3.9961-0.56641-8.0742 0-11.766 1.6445l-20.281 8.6445c-17.277-10.598-36.113-18.41-55.82-23.148l-8.1758-20.477h-0.003906c-1.4766-3.7031-3.9414-6.9297-7.1211-9.3398-3.1758-2.4062-6.9531-3.9023-10.918-4.3242-12.828-1.2227-25.746-1.2227-38.574 0-3.9883 0.41016-7.7891 1.9023-10.988 4.3203-3.2031 2.4141-5.6797 5.6602-7.168 9.3828l-8.168 20.449h0.003906c-19.707 4.7344-38.547 12.547-55.824 23.145l-20.262-8.6328c-3.668-1.6367-7.7227-2.2148-11.703-1.6641-3.9805 0.55078-7.7227 2.207-10.809 4.7812-9.7852 8.2266-18.84 17.281-27.066 27.066-2.6094 3.0859-4.2969 6.8398-4.8672 10.84-0.56641 4 0.003906 8.0781 1.6484 11.766l8.6445 20.281h-0.003906c-10.598 17.277-18.41 36.117-23.145 55.824l-20.555 8.2422c-3.7031 1.4805-6.9297 3.9414-9.3398 7.1211-2.4062 3.1797-3.9023 6.9531-4.3242 10.918-0.44922 4.4414-0.66406 9.2305-0.76563 14.402-18.332-12.188-31.133-31.098-35.645-52.648-4.5078-21.547-0.35938-44.004 11.547-62.52 11.91-18.516 30.621-31.605 52.098-36.441 7.4414-1.7031 12.172-9.0195 10.668-16.504-1.3477-6.625-1.7031-13.418-1.0547-20.148 1.4141-14.582 7.7031-28.258 17.852-38.82 10.148-10.566 23.562-17.398 38.074-19.395 11.574-1.5391 23.348-0.019531 34.152 4.4062 6.5938 2.5156 14.031-0.24219 17.395-6.4492 16.559-30.676 45.488-52.766 79.441-60.656 33.953-7.8945 69.66-0.82812 98.051 19.402 28.387 20.23 46.723 51.676 50.344 86.344 0.78906 6.8867 6.4961 12.164 13.422 12.406 27.961 0.98047 54.305 13.352 72.918 34.242 18.609 20.891 27.871 48.48 25.633 76.367-2.2344 27.891-15.777 53.648-37.48 71.305z"/>
  <path d="m350 177.33c-42.082 0-82.438 16.719-112.2 46.473-29.754 29.758-46.473 70.113-46.473 112.2s16.719 82.438 46.473 112.2c29.758 29.754 70.113 46.473 112.2 46.473s82.438-16.719 112.2-46.473c29.754-29.758 46.473-70.113 46.473-112.2-0.046875-42.066-16.781-82.398-46.527-112.14-29.742-29.746-70.074-46.48-112.14-46.527zm0 298.67c-37.129 0-72.738-14.75-98.996-41.004-26.254-26.258-41.004-61.867-41.004-98.996s14.75-72.738 41.004-98.996c26.258-26.254 61.867-41.004 98.996-41.004s72.738 14.75 98.996 41.004c26.254 26.258 41.004 61.867 41.004 98.996-0.042969 37.117-14.805 72.703-41.051 98.949-26.246 26.246-61.832 41.008-98.949 41.051z"/>
  <path d="m291.27 282.73c-3.6445-3.6445-9.5547-3.6445-13.199 0l-46.668 46.668h0.003906c-3.6445 3.6445-3.6445 9.5508 0 13.195l46.668 46.668h-0.003906c3.6641 3.5352 9.4844 3.4844 13.086-0.11328 3.5977-3.6016 3.6484-9.4219 0.11328-13.086l-40.066-40.066 40.066-40.066c3.6445-3.6445 3.6445-9.5547 0-13.199z"/>
  <path d="m408.73 282.73c-3.6445 3.6445-3.6445 9.5547 0 13.199l40.066 40.066-40.066 40.066c-1.8008 1.7422-2.8281 4.1289-2.8477 6.6328-0.023438 2.5039 0.96094 4.9102 2.7305 6.6836 1.7734 1.7695 4.1797 2.7539 6.6836 2.7305 2.5039-0.019531 4.8906-1.0469 6.6328-2.8477l46.668-46.668h-0.003906c3.6445-3.6445 3.6445-9.5508 0-13.195l-46.668-46.668h0.003906c-3.6445-3.6445-9.5547-3.6445-13.199 0z"/>
  <path d="m382.81 281.34c-4.418-2.6562-10.152-1.2266-12.809 3.1914l-56 93.332c-1.3281 2.125-1.7461 4.6914-1.1641 7.1289 0.58594 2.4336 2.125 4.5312 4.2695 5.8242 2.1484 1.2891 4.7227 1.6602 7.1484 1.0352 2.4219-0.62891 4.4922-2.2031 5.7461-4.375l56-93.332c2.6523-4.418 1.2227-10.152-3.1914-12.805z"/>
 </g>
</svg>
